<mxfile host="Electron" agent="Mozilla/5.0 (Windows NT 10.0; Win64; x64) AppleWebKit/537.36 (KHTML, like Gecko) draw.io/24.7.17 Chrome/128.0.6613.36 Electron/32.0.1 Safari/537.36" version="24.7.17">
  <diagram name="Página-1" id="lcmNlNYmFQxNORcRxw38">
    <mxGraphModel dx="4097" dy="3558" grid="1" gridSize="10" guides="1" tooltips="1" connect="1" arrows="1" fold="1" page="1" pageScale="1" pageWidth="827" pageHeight="1169" math="0" shadow="0">
      <root>
        <mxCell id="0" />
        <mxCell id="1" parent="0" />
        <mxCell id="siBUSRslZ89k5EyiSJtI-18" style="rounded=0;orthogonalLoop=1;jettySize=auto;html=1;exitX=1;exitY=0.3333333333333333;exitDx=0;exitDy=0;exitPerimeter=0;entryX=0;entryY=0.5;entryDx=0;entryDy=0;" edge="1" parent="1" source="siBUSRslZ89k5EyiSJtI-1" target="siBUSRslZ89k5EyiSJtI-3">
          <mxGeometry relative="1" as="geometry" />
        </mxCell>
        <mxCell id="siBUSRslZ89k5EyiSJtI-19" style="rounded=0;orthogonalLoop=1;jettySize=auto;html=1;exitX=1;exitY=0.3333333333333333;exitDx=0;exitDy=0;exitPerimeter=0;entryX=0;entryY=0.5;entryDx=0;entryDy=0;" edge="1" parent="1" source="siBUSRslZ89k5EyiSJtI-1" target="siBUSRslZ89k5EyiSJtI-4">
          <mxGeometry relative="1" as="geometry" />
        </mxCell>
        <mxCell id="siBUSRslZ89k5EyiSJtI-20" style="edgeStyle=none;shape=connector;rounded=0;orthogonalLoop=1;jettySize=auto;html=1;exitX=1;exitY=0.3333333333333333;exitDx=0;exitDy=0;exitPerimeter=0;entryX=0;entryY=0.5;entryDx=0;entryDy=0;strokeColor=default;align=center;verticalAlign=middle;fontFamily=Helvetica;fontSize=11;fontColor=default;labelBackgroundColor=default;endArrow=classic;" edge="1" parent="1" source="siBUSRslZ89k5EyiSJtI-1" target="siBUSRslZ89k5EyiSJtI-5">
          <mxGeometry relative="1" as="geometry" />
        </mxCell>
        <mxCell id="siBUSRslZ89k5EyiSJtI-21" style="edgeStyle=none;shape=connector;rounded=0;orthogonalLoop=1;jettySize=auto;html=1;exitX=1;exitY=0.3333333333333333;exitDx=0;exitDy=0;exitPerimeter=0;entryX=0;entryY=0.5;entryDx=0;entryDy=0;strokeColor=default;align=center;verticalAlign=middle;fontFamily=Helvetica;fontSize=11;fontColor=default;labelBackgroundColor=default;endArrow=classic;" edge="1" parent="1" source="siBUSRslZ89k5EyiSJtI-1" target="siBUSRslZ89k5EyiSJtI-8">
          <mxGeometry relative="1" as="geometry" />
        </mxCell>
        <mxCell id="siBUSRslZ89k5EyiSJtI-22" style="edgeStyle=none;shape=connector;rounded=0;orthogonalLoop=1;jettySize=auto;html=1;exitX=1;exitY=0.3333333333333333;exitDx=0;exitDy=0;exitPerimeter=0;entryX=0;entryY=0.5;entryDx=0;entryDy=0;strokeColor=default;align=center;verticalAlign=middle;fontFamily=Helvetica;fontSize=11;fontColor=default;labelBackgroundColor=default;endArrow=classic;" edge="1" parent="1" source="siBUSRslZ89k5EyiSJtI-1" target="siBUSRslZ89k5EyiSJtI-9">
          <mxGeometry relative="1" as="geometry" />
        </mxCell>
        <mxCell id="siBUSRslZ89k5EyiSJtI-1" value="Agricultor" style="shape=umlActor;verticalLabelPosition=bottom;verticalAlign=top;html=1;outlineConnect=0;" vertex="1" parent="1">
          <mxGeometry x="30" y="-930" width="30" height="60" as="geometry" />
        </mxCell>
        <mxCell id="siBUSRslZ89k5EyiSJtI-3" value="Introducir incidencias" style="ellipse;whiteSpace=wrap;html=1;" vertex="1" parent="1">
          <mxGeometry x="190" y="-1140" width="120" height="80" as="geometry" />
        </mxCell>
        <mxCell id="siBUSRslZ89k5EyiSJtI-4" value="Eliminar incidencias" style="ellipse;whiteSpace=wrap;html=1;" vertex="1" parent="1">
          <mxGeometry x="200" y="-1040" width="120" height="80" as="geometry" />
        </mxCell>
        <mxCell id="siBUSRslZ89k5EyiSJtI-5" value="Modificar incidencias" style="ellipse;whiteSpace=wrap;html=1;" vertex="1" parent="1">
          <mxGeometry x="200" y="-950" width="120" height="80" as="geometry" />
        </mxCell>
        <mxCell id="siBUSRslZ89k5EyiSJtI-6" value="Consultar inclemenias" style="ellipse;whiteSpace=wrap;html=1;" vertex="1" parent="1">
          <mxGeometry x="420" y="-1140" width="120" height="80" as="geometry" />
        </mxCell>
        <mxCell id="siBUSRslZ89k5EyiSJtI-7" value="&amp;lt;&amp;lt;extened&amp;gt;&amp;gt;" style="html=1;verticalAlign=bottom;endArrow=open;dashed=1;endSize=8;curved=0;rounded=0;exitX=0;exitY=0.5;exitDx=0;exitDy=0;entryX=1;entryY=0.5;entryDx=0;entryDy=0;" edge="1" parent="1" source="siBUSRslZ89k5EyiSJtI-6" target="siBUSRslZ89k5EyiSJtI-3">
          <mxGeometry relative="1" as="geometry">
            <mxPoint x="330" y="-680" as="sourcePoint" />
            <mxPoint x="250" y="-680" as="targetPoint" />
          </mxGeometry>
        </mxCell>
        <mxCell id="siBUSRslZ89k5EyiSJtI-8" value="Registrar siembra" style="ellipse;whiteSpace=wrap;html=1;" vertex="1" parent="1">
          <mxGeometry x="200" y="-850" width="120" height="80" as="geometry" />
        </mxCell>
        <mxCell id="siBUSRslZ89k5EyiSJtI-9" value="Modificar siembra" style="ellipse;whiteSpace=wrap;html=1;" vertex="1" parent="1">
          <mxGeometry x="200" y="-760" width="120" height="80" as="geometry" />
        </mxCell>
        <mxCell id="siBUSRslZ89k5EyiSJtI-10" value="Adjuntar archivo de aperos" style="ellipse;whiteSpace=wrap;html=1;" vertex="1" parent="1">
          <mxGeometry x="430" y="-850" width="120" height="80" as="geometry" />
        </mxCell>
        <mxCell id="siBUSRslZ89k5EyiSJtI-11" value="&amp;lt;&amp;lt;include&amp;gt;&amp;gt;" style="html=1;verticalAlign=bottom;endArrow=open;dashed=1;endSize=8;curved=0;rounded=0;exitX=1;exitY=0.5;exitDx=0;exitDy=0;entryX=0;entryY=0.5;entryDx=0;entryDy=0;" edge="1" parent="1" source="siBUSRslZ89k5EyiSJtI-8" target="siBUSRslZ89k5EyiSJtI-10">
          <mxGeometry relative="1" as="geometry">
            <mxPoint x="430" y="-1090" as="sourcePoint" />
            <mxPoint x="320" y="-1090" as="targetPoint" />
          </mxGeometry>
        </mxCell>
        <mxCell id="siBUSRslZ89k5EyiSJtI-23" style="edgeStyle=none;shape=connector;rounded=0;orthogonalLoop=1;jettySize=auto;html=1;exitX=0;exitY=0.3333333333333333;exitDx=0;exitDy=0;exitPerimeter=0;entryX=1;entryY=0.5;entryDx=0;entryDy=0;strokeColor=default;align=center;verticalAlign=middle;fontFamily=Helvetica;fontSize=11;fontColor=default;labelBackgroundColor=default;endArrow=classic;" edge="1" parent="1" source="siBUSRslZ89k5EyiSJtI-12" target="siBUSRslZ89k5EyiSJtI-13">
          <mxGeometry relative="1" as="geometry">
            <mxPoint x="710" y="-1090" as="targetPoint" />
          </mxGeometry>
        </mxCell>
        <mxCell id="siBUSRslZ89k5EyiSJtI-25" style="edgeStyle=none;shape=connector;rounded=0;orthogonalLoop=1;jettySize=auto;html=1;exitX=0.5;exitY=0.5;exitDx=0;exitDy=0;exitPerimeter=0;entryX=1;entryY=0.5;entryDx=0;entryDy=0;strokeColor=default;align=center;verticalAlign=middle;fontFamily=Helvetica;fontSize=11;fontColor=default;labelBackgroundColor=default;endArrow=classic;" edge="1" parent="1" source="siBUSRslZ89k5EyiSJtI-12" target="siBUSRslZ89k5EyiSJtI-17">
          <mxGeometry relative="1" as="geometry" />
        </mxCell>
        <mxCell id="siBUSRslZ89k5EyiSJtI-26" style="edgeStyle=none;shape=connector;rounded=0;orthogonalLoop=1;jettySize=auto;html=1;exitX=0.5;exitY=0.5;exitDx=0;exitDy=0;exitPerimeter=0;entryX=1;entryY=0.5;entryDx=0;entryDy=0;strokeColor=default;align=center;verticalAlign=middle;fontFamily=Helvetica;fontSize=11;fontColor=default;labelBackgroundColor=default;endArrow=classic;" edge="1" parent="1" source="siBUSRslZ89k5EyiSJtI-12" target="siBUSRslZ89k5EyiSJtI-16">
          <mxGeometry relative="1" as="geometry" />
        </mxCell>
        <mxCell id="siBUSRslZ89k5EyiSJtI-12" value="Contable" style="shape=umlActor;verticalLabelPosition=bottom;verticalAlign=top;html=1;" vertex="1" parent="1">
          <mxGeometry x="779" y="-1030" width="30" height="60" as="geometry" />
        </mxCell>
        <mxCell id="siBUSRslZ89k5EyiSJtI-13" value="Introducir gastos" style="ellipse;whiteSpace=wrap;html=1;" vertex="1" parent="1">
          <mxGeometry x="590" y="-1140" width="120" height="80" as="geometry" />
        </mxCell>
        <mxCell id="siBUSRslZ89k5EyiSJtI-15" value="&amp;lt;&amp;lt;extened&amp;gt;&amp;gt;" style="html=1;verticalAlign=bottom;endArrow=open;dashed=1;endSize=8;curved=0;rounded=0;exitX=1;exitY=0.5;exitDx=0;exitDy=0;entryX=0;entryY=0.5;entryDx=0;entryDy=0;" edge="1" parent="1" source="siBUSRslZ89k5EyiSJtI-6" target="siBUSRslZ89k5EyiSJtI-13">
          <mxGeometry relative="1" as="geometry">
            <mxPoint x="430" y="-1090" as="sourcePoint" />
            <mxPoint x="320" y="-1090" as="targetPoint" />
          </mxGeometry>
        </mxCell>
        <mxCell id="siBUSRslZ89k5EyiSJtI-16" value="Cerrar mes(gastos)" style="ellipse;whiteSpace=wrap;html=1;" vertex="1" parent="1">
          <mxGeometry x="590" y="-930" width="120" height="80" as="geometry" />
        </mxCell>
        <mxCell id="siBUSRslZ89k5EyiSJtI-17" value="Registrar albaranes" style="ellipse;whiteSpace=wrap;html=1;" vertex="1" parent="1">
          <mxGeometry x="590" y="-1040" width="120" height="80" as="geometry" />
        </mxCell>
        <mxCell id="siBUSRslZ89k5EyiSJtI-29" value="&lt;h1 style=&quot;margin-top: 0px;&quot;&gt;4.-&lt;/h1&gt;&lt;h1 style=&quot;margin-top: 0px;&quot;&gt;El denunciante puede:&lt;/h1&gt;&lt;h1 style=&quot;margin-top: 0px;&quot;&gt;&lt;span style=&quot;font-weight: normal;&quot;&gt;&lt;font style=&quot;font-size: 22px;&quot;&gt;- Hacer un&amp;nbsp; registro&lt;/font&gt;&lt;/span&gt;&lt;/h1&gt;&lt;div&gt;&lt;span style=&quot;font-weight: normal;&quot;&gt;&lt;font style=&quot;font-size: 22px;&quot;&gt;- Hacer una denuncia y podrá comentarla. Pero antes debera&amp;nbsp; si o si de loguearse.&lt;/font&gt;&lt;/span&gt;&lt;/div&gt;&lt;div&gt;&lt;br&gt;&lt;/div&gt;&lt;div&gt;&lt;span style=&quot;font-size: 22px;&quot;&gt;- Buscar amigos, que pueden o no comentar la denuncia. Pero antes tendrán que loguearse.&lt;/span&gt;&lt;/div&gt;&lt;div&gt;&lt;span style=&quot;font-size: 22px;&quot;&gt;&lt;br&gt;&lt;/span&gt;&lt;/div&gt;&lt;div&gt;&lt;span style=&quot;font-size: 22px;&quot;&gt;- Buscar una denuncia&lt;/span&gt;&lt;/div&gt;&lt;div&gt;&lt;span style=&quot;font-size: 22px;&quot;&gt;&lt;br&gt;&lt;/span&gt;&lt;/div&gt;&lt;div&gt;&lt;h1 style=&quot;margin-top: 0px;&quot;&gt;El fiscalizador puede:&lt;/h1&gt;&lt;/div&gt;&lt;div&gt;&lt;span style=&quot;font-weight: normal;&quot;&gt;&lt;font style=&quot;font-size: 22px;&quot;&gt;- Informar de un areglo pero debera antes buscar si o si la denuncia y tramitarlo&lt;/font&gt;&lt;/span&gt;&lt;/div&gt;&lt;div&gt;&lt;span style=&quot;font-weight: normal;&quot;&gt;&lt;br&gt;&lt;/span&gt;&lt;/div&gt;&lt;div&gt;&lt;h1 style=&quot;margin-top: 0px;&quot;&gt;El adm puede:&lt;/h1&gt;&lt;h1 style=&quot;margin-top: 0px;&quot;&gt;&lt;span style=&quot;font-weight: normal;&quot;&gt;- Moderar comentarios&lt;/span&gt;&lt;/h1&gt;&lt;/div&gt;&lt;div style=&quot;font-size: 22px;&quot;&gt;&lt;font style=&quot;font-size: 22px;&quot;&gt;- Buscar eventos&lt;/font&gt;&lt;/div&gt;&lt;div style=&quot;font-size: 22px;&quot;&gt;&lt;font style=&quot;font-size: 22px;&quot;&gt;&lt;br&gt;&lt;/font&gt;&lt;/div&gt;&lt;div style=&quot;font-size: 22px;&quot;&gt;&lt;font style=&quot;font-size: 22px;&quot;&gt;- Confirmar Arreglo&lt;/font&gt;&lt;/div&gt;" style="text;html=1;whiteSpace=wrap;overflow=hidden;rounded=0;fontFamily=Helvetica;fontSize=11;fontColor=default;labelBackgroundColor=default;" vertex="1" parent="1">
          <mxGeometry x="30" y="30" width="779" height="630" as="geometry" />
        </mxCell>
        <mxCell id="siBUSRslZ89k5EyiSJtI-30" value="" style="shape=image;verticalLabelPosition=bottom;labelBackgroundColor=default;verticalAlign=top;aspect=fixed;imageAspect=0;image=data:image/png,iVBORw0KGgoAAAANSUhEUgAAAhwAAAHTCAYAAABsqMGAAAAAAXNSR0IArs4c6QAAAARnQU1BAACxjwv8YQUAAAAJcEhZcwAADsMAAA7DAcdvqGQAAGJUSURBVHhe7Z2/jhRH14eH7zIQQsj4GhwgQ0AAvgACICJCwvErkxCSLCI2EhEROOACgMCBsQh8DcZCCHEb+83TzG99ttzd07M7DbPwPFIxXf9PnaquOlXdbJ/aX7IQERERmZH/W/2KiIiIzIYGh4iIiMyOBoeIiIjMjgaHiIiIzI4Gh4iIiMyOBoeIiIjMjgaHiIiIzI4Gh4iIiMyOBoeIiIjMjgaHiIiIzI4Gh4iIiMyOBoeIiIjMjgaHiIiIzI4Gh4iIiMyOBoeIiIjMjgaHiIiIzI4Gh4iIiMyOBoeIiIjMzokxOE6dOrX4888/V775efDgQefg+++/X/zzzz/d9dxQ12+//bbyHYb2owdcZJPpjOn2c/Pzzz93Dj732BYR+RIcyeD46aefukmynbwJ/xoWQoyLu3fvLn755ZeuPVeuXFl89913XXtpNwtXHzEIhuI3hQWplnX//v3F3t7eYn9/v5MNfeO+BrZhRH1pfSA/7ZgCY+zcuXMHhuzp06e7XxGRr5Ujn3CcP39+cePGjZXv6+Lhw4eLO3fudNcYHjdv3uyugXZD304Zg+Dq1auLt2/frkKOx6+//rr4+++/V75Fd3327NmVb7F48eJF574GYkQdhy+tD+SnHevAyHj58mWX/vnz591Yw6AVEfmaObLBcfv27W7xHduV5kQgrqZl946fHXzimYizS8S1i/qHDx8O4nCBkwXKSd4cVddHELhaXnt6UMmuM78ttP3Jkycr3yeyiNy7d28V8i+1jbhKbW/kDsRlx048hgxGHtfUR/qap9V3aMNru/Anvk8f1I8cIToN5BmqF2r72rhKygHy0C7qTr7EharTyNfqo9ZdwwNhiceFdjz15a9500fIWHXYjj/8gJHx7Nmz7hqDFsNSRORr51jvcLCjZ8LsW5iZfFkcWSTZ9fFL2rpw4GfhJp5dHgbMu3fvOj8TcnuCwmJOHI6ThHp8TvnJywSOTBcvXly8fv26C8ti3SdrC7tkymDXSd4ff/xxFfOJa9eudcZFLaueilRYgHgkE7lJk0WJBQgdREccsXPdB/HoB71w3e6IKavqm3QsmIRHxzjqbxfP6LWepmwC9aZ8+iXl09fpkzZuHY8ePVrcunWry9eOBfq96vTx48ermH9Zp1t08+rVq4MyeFQ1NJ64Rp4YDG1e+iJxgbER+VM+fuBk4/r16901cSIi3wTLCW9jlgvH/nICPbheLmIH1zU814F0SVuvYbmo7C8X1JXvE4i3nOwPrpfGQ3cNXEf8eh2oGxkqfTJtQpWxlT+yrpOLNEnblgGUTz3QtqHGQc3fV1YfrZ6Rpeq1pdVZ26ZWJq5bvYe+Pglj7YborOqvZZ0+ah2t3LXcvn5DnqG8gTDi+ugrU0TkW+LY/0uFk4C6+6vU9w2gviQ3lY8fP66uDjPlJTtOIeqRNv5twXsdtBvY8S4XpN7n8MsFaHX1iaRJu9DJthgqqx7/t6dGc1BPSupjEU4cjkMdC326blmnW3QR2dp+6uP9+/erq8XizJkzq6th6iMZTttERL5ljm1wMPEvd5Ld45WWOkEDR9RTFoopDBkiFYyApVF1yB33xcTAYxYWKRYVjvRzXN6y3DGvrj4RgysGEzrZFn1ltcf/y134KmYax+mvPD5J3Xt7e51/G0wxXNfpFl1Etrip7eV9ojF4nISBlXJfv369ihER+TY5tsEBnHJwelBPEFiAmXCzMPDLiUD9Hx+bUhd1DBwMnSHynkXfyQuwGNYX/I4CL49m155n8pUYJfW9Bd71yGnIpUuXOp1ER6RrDZSptGWx4GFsQG1n+7LrOjglqO9IDBlWQ9QFvO9di02hPHSKHkNfP67TLX3X94LvFHh/pOal7L5xVk9Nnj59uroSEfk22YrBAdk55zEKCzA7WibdHFmzy2tfwNwEjIwcUXNsP/Z2PwsT9XGUnTy4IQPkKOS0hMVrCORk4Uv9LID5r5voCKMpOmJxxxg5Cq2+WRCRD4cMqX/qDj6kjcnfd5I1RB63JS8L9TZoddon0zrd0i7kSRm4qQYo7SJt8kE7rqm/TSMi8i1zap/zXhEREZEZ2doJh4iIiMgQGhwiIiIyOxocIiIiMjsaHCIiIjI7GhwiIiIyOxocIiIiMjsaHCIiIjI7GhwiIiIyOxocIiIiMjsaHCIiIjI7GhwiIiIyOxocIiIiMjsaHCIiIjI7GhwiIiIyOxocIiIiMjsaHCIiIjI7GhwiIiIyOxocIiIiMjsaHCIiIjI7sxgcP/300+LBgwcr3zj//PPP4vvvv++uyTM135fkt99+O5B5k7aKiIh8qxzJ4NjmIvvzzz8v7t+/3xked+/eXfzyyy+rmE8GyKlTpw5c6iQtfn4rf/75ZxdeqfmRu9KWT/4KhgXhyFh5//79gcHx999/L86ePdtdi4iISD9f9JEKC/zLly8X169fXzx8+HBx586dVcwnQwQDZH9//8D9/vvv/zEKxsAooMzkxziI8YAxQflv377t4p49e7a4ePHigRFD3j/++OOQTOHx48eLe/fuHciC/CIiIjLMVgyOnATg2lOEnDr0GQofPnxYXX06tQikffToUWcMVF68eLH48ccfV75xKIP8v/766ypk0Z2kUC48efJksbe3t/juu+86P0bD+fPnF8+fP+/8GCc1b6DcK1eudHJQHuWIiIjIOMc2ODAUbty4sXj9+nV3UnDr1q3u1GIKLPLkAYyJLPBv3rzpFv8YA0cBY4YyKmfOnOl+kbnvUQinGu/evVv5+sHQiJybGEAiIiLfMsc2ODgRuHr16sHCixGBPxCOUbHpwpx3JLbJ6dOnV1f9HMfAERERkWG28kjlpCzUHz9+XF31076EKiIiItthKwbHthfqCxcudI9lhsqNgdMaEPUxCo9P2ndAEk9+TlD43yYVHrNcunRp5RMREZFtcWyDI8ZBXgrlv5rWdzgIH3ppdAgev/BYhpczK/wPk5RDPO+LVHiX5Pbt2911HuHU/77L/yxJ/OXLl7v/pRJ48RUDxf9xIiIisn2ObXCwsPO/PfgvpRgWvHTZ919JN4UXMjE48r9fcOfOnTswJIjnlKLGI0f9Ox4YEBgViae8xPOLnInDWKknIimb/9WC47r9exwiIiIyjVP7+W8iIiIiIjOxlXc4RERERMbQ4BAREZHZ0eAQERGR2dHgEBERkdnR4BAREZHZ0eAQERGR2dHgEBERkdnR4BAREZHZ0eAQERGR2dHgEBERkdnR4BAREZHZ0eAQERGR2dHgEBERkdnR4BAREZHZ0eAQERGR2dHgEBERkdnR4BAREZHZ0eAQERGR2dHgEBERkdk5sQbHn3/+uTh16tTKJ7uEfSMiIi0bGxzff/99t5j0ORYa4n/++edV6q+Hn376afHgwYOVb/dAPvrgn3/+WYUcDfqOPtwmlPk1jgkREZnOxgbH33//vdjf3+8cvH79+sD/448/dvG//vprFyefB4yMly9fLu7cubN4/vz5KvRo0Hf0oYiIyDbZ+iOVehLw22+/HfhzCtLudPEnDscpyRD1dOXNmzer0H+p5YztqKs8uAoyt3HUy4J+9+7dLiztY6GvaWlrSNvTvqqTmqe2t+qinjLgT/4+MDIwNi5durR4/PjxKvRfUmZ1QH2UG70iC/7ajjweiaPNaXc9TaGsPp1T1qNHjzpHnpqmllvbm5MyZGnziIjIyWT2dzhYqN+9e9edgLx9+7ZbeFh0gYXk1atXByckz549W1y8ePHQQhZIyyKUtO3CStze3t5BPOWmngphkQd39erVgwWNhe7GjRudnMQhD4seO37Spfxffvmlk/H8+fNdmpRFuro40vZz584d5GnL53SI9gJx6KaWNRV0gbFx/fr1rmzKCiz4GCOpD0gTMKKePHnSxXNCVaGNyJdTLH4fPny4ip3GixcvuvojQ06/MCRqf9F/1dBBxvSTJ2YiIief2Q0OFuUsGN9991238Pzxxx+dnwWWxS6wYJL+r7/+WoX8C2nv3bu38i0O5WOBZYFiUQ+3b98+lCZQR13ALl++fGDgPH36tJMPOYG0tcwKpwoYIaQJ9+/f7wydQFtq/rZ8FnjSVMOoGguBRXdIjrQ9clA+9QQMF4wRiEHx8ePH7hdI3xoaIW1MPL/bWPxpb6sb+hYDraKhISLy9TC7wdHCjr9y+vTp1dUn2Om+f/9+5TtMm7alHtGzcx+CnfRQula+MWI4hDNnzhw6Pegjjxbikp7FPCcehPedzvQRIyZgXFBHjCj0GQMvxsw6PVbaNm4L5KpEpr7TLREROfl8doODY/JK3W0DO/KzZ8+ufIdp07bkeD6O4/yWPPJIGo71K618Y7SL44cPH7qd+xgYB1VGXE4nMDrwY3jw6GXK4otxUY0Y8kF9eTTxGDM8AtrEiOiTYRtGSPvIKH07l4EjIiJfltkNDnbweeGRxYvF7+bNm52fxffWrVvdNbCrr48HKhzt88gi5N0HYKFmoU8966iLWn0XpD0dQJ6USZ5qjFy7dq17BFBPIngswKOcIWh3LX+I9gQCY6Gvbam7NWDQa9qFjOg0cX26HeLChQtd/pyM8BuDDX3HqCGcdg3BqVFtMzLUcQH0bT2pERGRr4zlInRkyL7cja98n1gaBvt7e3vd9XI3vb9cmPaXC0mXFpe4QPrE4cao6ai3TV/jcW1doaZBNmQI5EkcsofUh6NdbRiu1pe2txBe8+CWi++henGpA/D3taXquhK5+O2rj3Cg7bgK5VV9tPlDbTvtJF/KSlygfUkbeWsYrsrR5hcRkZPPKf5ZTu6zwA6cXf8m/+NCtgenCpxEcJqQUx37REREvgSf/R0O+Xz0vRfBC7ntC5siIiJzo8HxFcO7LXt7ewcvlOJ4t6PvZVoREZE5mfWRioiIiAh4wiEiIiKzo8EhIiIis6PBISIiIrOjwSEiIiKzo8EhIiIis6PBISIiIrOjwSEiIiKzo8EhIiIis6PBISIiIrOjwSEiIiKzo8EhIiIis6PBISIiIrOjwSEiIiKzo8EhIiIis6PBISIiIrOjwSEiIiKzo8Fxwjh16tTiwYMHK9/x+e233xY///xzd/3TTz8t/vzzz+56COKR4SRwkmQdAvmH+oS+Ix7HtWyPMb1/br7//vuuf7+G8SzfNkcyOFiYMtHFfWn++eef/8j0JeSizuMaBOgX10LYs2fPFr/88ssq5PjcuHFj8b///e9gwfrxxx8PJrbWfU4wgphotwllxrg6ibTj4t69e9142N/fX1y/fr3ro20ao7tI7vPjGliMrS85FjYZ32/fvl2cOXNm8eHDh8X58+dXoSInkOVktTFXr17d39vbW/n29+/cudOFfUmWN+U+zeE3ICNhr1+/XoVIBf2k35YT2f5y8equ0dfQ0BiL2zVaWRmnuJPE2Ph1bM/HruiWezL3KL+5R0VOIlt5pHLp0qXF33//vfL9ewTY7owJT1h2an3HhOSt1n/y4DbZlXASsFxUF7du3VqFHD6GxtVjU3aHNS60eQLXiYu8aTtQXnbVydvuQKtOEpc8oT1xqHGpA30mPvVD2tTHu3fvVlefdlHboLanygkJrw5Ih5zJS3vx1918qwN2utnt8hsoq60XKOvRo0edI09NU8tNPwJ14o8O+8olvo6P5K/9UeWLzHG1jUAdiaPeStqWMuDixYsH15El1LJqPWlPXBhqb20frran0tbPdfQRmWtZY21Pvj6IR1YgD/KSPnkTB62+E0fdVb+17lbvUPuzykZ7iBvLX/NGp6Sp7R/S8ZMnTxa//vrrgdycZImcVLZicHBTXLlyZeX7BEf1S4Omc8DNRZoaxk3HET7UiYrybt++3V1zc2M0JN+rV68OpV3HhQsXusWUG5ibFrnwU9ZyB9NN2ED83bt3D+IiY5uHI+w6oXCsTXg1uCoscOfOnTuojzrqpFd18vjx4y68QlpkJG/SUWaVAT9GFXHIh7xTYCJ78eJFd03e405mtIe+oyz0hVy1rXfu3OniaAuQJqCX5M2YCPRN1QG/Dx8+XMVOg3ZSf2Sg7cDkXscX460uBMiIYVbztLRjnTLTH9SXRYZ2cCROHyU94ybxjGt0lrhqEFa+++67Lh6ikxbGB/dKyiIPfUEdaQ9uuWs+qB/a9pIn/YKr7TkKtayXL18e3MvIm/sEl7Ap1LHTbjCqvmnb/fv3VzH/sk7vaW/iuWerDmhHe4/HYGjzEp64MKZjxi19xz2Re1XkxLIc4BvD0R5Zq1veaKvYw8fzsLzRuzT8BuJJB8sb7ODYsKalTK4r9TFApa8OqOHUg6tE1qSrckNfnkD62m6obe+TFT/hQ/JCrbOv/lpuXx1D5U4leq+OemrcFKou2jFBGdHdUdoIfTqsZbWytvUgT8ZgqHmmtLVtV1sHZaSOvnZUGYiLnsOYnmocVFlauYaoMk1pb5/OQltnTTvUV217Q9vWyphOUg+MyVp1vU7v9RqqnvrqwD+UN1S9t4zJLXKSOfIJx/KG4Y7r3PKG6nag2c0OsbyJDo4M6y785s2b3S4Bnj9/3u26sOpD8uDYPWzCx48fV1efYCdTy1tOUF049XGNXITX3RW7l21R2wWtv4+2/rNnzw6eqIS23Uch/Yub8qIqO7c+3QInB3/88Ud3nXFy+vTp7ncKU/R0FOrxOESmdhd6HKoe2nbwMmCNp2+3BWX3wQlO+mjK/cRuO+mnnp5NpZ4m0Beph/v0OKT/2v4dYp3e8+gKl1PRMXjBM0wZ53PqWGRX2MojFY77MBLevHmzCumHibUuYlk0yY8xwtHm77//fuhIFGoe3CZHi8hE2Znol7uh/5SXRwmkwY+cTMRZGIeOto9Cu5BNWdja+t+/fz95Iv2coOfl7uxAr/grMfaYsEm3iRHRp6dtGCGt4RZDbRtl99G2o/2fB/TttqiLXmiP+Nk4jNE+mqHfhjjOmGwfL3KfboN1hnlYp3c2VZEtbirrjP9NdCxyktmKwcEkygkF70v0weSNQTL23J13NngfgnJiAMQQmfostwUDJs93gZMUFr11i3xdbHghtuahzE3kqc+pMWDwX7t2rauDtlWd9E3YkbmeHtGm1igbAllZ5D8X2VUjb9250+5qcG7yvgjjivzRAb9ZONEhp2JA+NjOmJOi2vfIgEy1P3nGv63FroV+r+MBGPN5X+ny5cuHThzquySbwuJN2QF9RX91fPe9N9RSx2XupT4ot8ZvulOvJ3lj/TiVH374oevf6Ju+79PpOr0zHvre/ZgC817NS9l9889UHYucZI5scHCD5giQSR+rvH3Zr8KpBFZ88uCyaACTMZNDO9mzQ6l14cYWfGRJOiY8FrfIxS9y1jQ4JgAmpRrGzo/0LEpcJw+T+CZ/B4MJhwmEvO3OnrYxsabOvkktMtcjXfybLNhHJfXF9U2UlSonBhFtD316zwK4jlYH/OYFTnSb8UGdYzv2LPikzRhizNXxRd8MvRx6XCibnXIe2+EwNjKe+EVniaM96Owo0AYWsZQF6JHwOuYwTMZAJsZp0ldjpYWyo18cfTYV8tZ+2IbR1+obXfb17Tq9J0/icVONQea9qj+Mm1aHm+hY5CRzarkgTz8blI1gUeMR0bf+djmGChM4i3smUww8jDcmWhER+frZyiMVkTH63ovY1fdQRERkHjQ4ZHY4yudRR46Mcbw74N8VEBH5dvCRioiIiMyOJxwiIiIyOxocIiIiMjsaHCIiIjI7GhwiIiIyOxocIiIiMjsaHCIiIjI7GhwiIiIyOxocIiIiMjsaHCIiIjI7GhwiIiIyOxocIiIiMjsaHCIiIjI7GhwiIiIyOxocIiIiMjsaHCIiIjI7GhwiIiIyO9+UwfH9998vfvvtt5XveFDOqVOnFv/8888q5Pj89NNPiz///LMrE1nX8fPPP3fuJPAlZEWfDx48WPmGQd/b7stAf85V9rZAR+hK5uU49wD9wzjCHZU57kHkYYwzH06Zs+Tb5kgGRx38uJM40Ljx1smdhag1Ugi/cePGYn9/f/Hdd9+tQo9H6vjxxx872e7fv9/5ua66xm170lgHdU5ZuDeBMpmovmYYJxcvXly8fft2cJwwBqf25y5P6nMY4PIJ7pOXL1928w1uV0hfnz59evH+/XsNDlnLkU849vb2Dm4ABtpJ2yH9+uuvi7///nvl64dFgvZdv359FfKJhG+Te/fuLW7dunUwudQ679y5c6BrHLJ/Tqjzl19+WflkKhknY0YpY/Bz9+ccMF7XtVWOxocPHxbnz59f+XaH58+fd3MTff748eNuDhMZYyuPVBhoLJLAgokBwo647sYJxx/XnhoMxbU7/LorTtrEtRZ2ZMC1u8j2GLmVL9Y717XOMXmov8qDqxA/tJtlFwxMLtugbU+Vs5URF7m4Tnz0mXaFqoPosO9YnvhaL6BXwoHdf03TylVPVagTP7LUPJWav88Abvuu5a+//jqIS9vDUN60J3Wn3rYtQzt/0qed5MFf60ocv5yqMU4Ij3ykr3Wlnlbeqq/IHFehrLbtU/qf8mtZydNXB1AGLkSmyN+2q8a1DOkAGRJW6+K6jiVc1U9bL67mr+GtrirRyVC6tp6+Md32e+SoZeMoqzIWh74SV+tsy6xxyFHjACMDY5nyr1y50p3Oioyy3JVszNWrV/f39vZWvv39169fs90/dL20fDs/LG+WLoy46ucXltb7ofLwA2XkGp49e3YoH9c1vpYTOZKWcPyUET/tgFY+fiN/DV8nD3H4A+VXPRBf/VMg/VCeoTjkqXLS1vjbtpI/egDial7AX/VW48lPWVWfoa2nylrjoNVl5Ey95G3zVNp2pTzkglbuKm/yVvlJG3k3zYsM1U851V8hPDK2MlMO/uiE+CoHkL+mAeqr6VrdEpc6Wvn76sBPOLS6oC7kjKyBNNXfQr7oFyJHZGzbtU6HNS0QlrGQsuOnrOqvbepLW+slLroD4obkIm30Fv2kzfFH5vj7aPuklTH+lEXaKmPyrmt3raNPJylf5KgMzwgjcIO1A7q9kSqkbW/KlDF2o9WbI1BXbuI2nvIiB7+5DjVvlalPvlDrWCdPvQauh8qdSiaJ6nLj97Wxj6rjeg3IiNyBuE3aGPp0WMtqZW3ryXio1Dxt/pa++muZrdx1Eu2bUKteNs3bUstqqTL2pcMfPfXF9+mt1S2kDYQTX6m6G5KB8Pa60pY7lC60/dnqsW0X5bdyhT4dtFR5huqGth1VH/U69OkT+tLWelsZoMpYacuq/RWigyF5oK2ztrullpN0fbKJbMKRH6ncvXv34HiN47R1z6F55FKP5PIIBpY30+rqv/BCUoWjSV5QGqIeu547d251tZ6pz543lWfdeyJTWE4S3PkHboqs9QiURxch8ue49I8//hg9Fu7jzJkzq6vtcvbs2dXVJ+i/oWP0PtbphaPp6GRszEHbxk3yAkffSU/e43CUx2xj43SK/GPM1f/rWC58q6v1MG6if9yUvORZd3+090rS943TdffVo0ePNpYxHHU+7SOyD80Z3FfIlnuAdCJHYSsvjU556W1pgR9aNHF5EXHsRvv48ePq6hMs4O3CNMS7d+9WV+uZurAdR57PBc9UMQij5+VuZRXzL3l/gknvxYsXq9Bp9C2A29BBa7jRf1MNQVjXh8sd2qHxhxsqv23jJnmZkF+9enWQjryfm7FxOna/TTEmtvGe0SabgaPAolv7bNNFeOj+aDcQ0XPfWFi32Wg3Erj2BfUhjjqfDrFuzqB9hFM26er7HSJT2cpLo+u4du1aZ4H3DdK8aFSt5uwMuCH5nxuBm4IBP+WmvHTpUjdZZBFixzl0I164cOGQfPzWl8TCceQB2tVX7hzUCfbp06erq08vRraT1SZwmlXfRqc96IuFCh1WfY+BfHXhQq9MZMnPL/138+bNzr+Otg8ZT3XXd/v27bVv0VeZSUsemJK3pe5unzx5sro6Huh4ymIyNk7b+w19offAjp20VY+1zqH+3xSMH/o3zHFfxHhCvil6g7H7A/1RTp2r+O/r6Lvlhx9+6NKie+C3tpdxXeenTTjqfLqOoTmjsskGQKTlsxgcDFIs5uwa4nLDcGMy6SU8EzQnJ9wsCedIb+oCyeTARMBNRF52VEwkfXCTshuKfPz2ndocR57jwMSUOnH5nwFD0PYqZyXGUS1v6oQErQ4A/eFafdcJrIVFPEe0TLrIxalZ8vPLmMkEug7SkT99yOlIXQjY/bFYEhfXtptFusZlxzglb4X07G6TdluTNG2MfsbGwLpxil5zv9HmegKDrK0e630z1P+bQn9TbsqpBtI2qPczZQ/d+y3r7o92rkJffXMF4ciQMc6chl4DOiM+/Rk3xQA56nw6xticgbGUcBztOEqfi5xaTkTzr5iyM7Dz+f333w8dE7N4Xb58+WCBFflW8f4QmY/PcsIhu0PfexG7+B6KyJfA+0NkPjzh+Abh6JRj18ARqbs3kU94f4jMgwaHiIiIzI6PVERERGR2NDhERERkdjQ4REREZHY0OERERGR2NDhERERkdjQ4REREZHY0OERERGR2NDhERERkdjQ4REREZHY0OERERGR2NDhERERkdjQ4REREZHY0OERERGR2NDhERERkdjQ4REREZHY0OERERGR2NDhERERkdjQ4REREZHY0OERERGR2NDhERERkdjQ4REREZHY0OERERGR2NDhERERkdjQ4REREZHY0OERERGR2NDhERERkdjQ4REREZHY0OERERGR2NDhERERkdjQ4REREZHY0OERERGR2NDhERERkdjQ4REREZHY0OERERGR2NDhERERkdjQ4REREZHY0OERERGR2NDhERERkdjQ4REREZHY0OERERGR2NDhERERkdjQ4REREZHY0OERERGR2NDhERERkdjQ4REREZHY0OERERGR2NDhERERkdo5kcPz000+LU6dOHbjvv/9+FSMt6Obnn39e+URERL5NjnzCsbe3t9jf3+8ciypGiPyXv//+e/Hrr7+ufCIiIt8mW3mkcu/evcXLly9XvsXiwYMHh05AKhgnCa87/zbPb7/9topZdNc17p9//lnFHKamobwhhtLVk5v21KbKHYcctKG2g7DEAWWmDtqBn/SkSXi9FhER+RrZ+jscLKrv3r07OP24evXqwYLMosrCnbjs/Am/e/fuQfjr168XN27cWPz5559dPNeEJf67777rwiuU+/bt24P8lNdnmCDLnTt3Dsr65ZdfDsIh4VeuXDkI4zdyUwdQR58c68AwO3fu3KG6RUREvna2YnDcunWrW8Th+vXrhx4hXL58+dDCX09CwuPHjxfPnj1b+RaLH3/8sTNU3rx5swpZHLrug0cXMQDIDx8/fux+W169erW6+pdHjx51JzXh5s2bXRggP+0A6jh//vziw4cPnX9TyNsaGhofIiLytXNkg4MThDxa4DSgGhn10QTpAosq734krhoiZ86cWV19goWdkxJgQU59OXVo4TQk5eKGQE7k7Ut38eLFg3CuA7L8/vvv3TUyc8rRyisiIiLDbOWl0WpstI8mSFfB6Eg4C39oTwxY2Hn0EFIepw71/Q4gLQZCfewyBvKShlOZ+rJrzd+Ww8kMhggnFMieU5Qqo4iIiPSz9Xc4oL7bwOOSPs6ePbu6Wixu377dvacROK1ggb927doq5F9Y8Ic4ffp099saJENUYwHj4/79+yvfYXgEU42R+viDduTRCwydwIyBIeNLoyIi8jWzdYOD0wMW4DyaqKcY9VELBkbepWABZ8FPHKcVPLbAcGkflVAe74lUSMepA8YIaZ48eTJomNT/bcJjmhcvXnThOaVJHC6nH5RXH7fgYtQgC++bJJz3WUREROQwp5Y79vHnD9IZEpxw5DEKRhAGiKoTERGZxiyPVL4m8mJrHtcA75uMPdoRERGRw3jCMQEen9R3TEC1iYiITEeDQ0RERGbHRyoiIiIyOxocIiIiMjsaHCIiIjI7GhwiIiIyOxocIiIiMjsaHCIiIjI7GhwiIiIyOxocIiIiMjsaHCIiIjI7GhwiIiIyOxocIiIiMjsaHCIiIjI7GhwiIiIyOxocIiIiMjsaHCIiIjI7GhwiIiIyOxocIiIiMjsaHA0//fTT4sGDByvfbnOSZD0q//zzz+LUqVPd7+cCnX7//fcrnxynD/78888uL+6oYzVliMjJZmcNjkwyLKrbhjIzCcZ9zoU7E/hvv/22Cjk+cyzMyLdJmaSl33aRqX1Mmx8/frz4+++/VyFyHO7fv7/Y29tb7O/vL3755ZdVqIh8i+ykwYFBkIlqLjIJxn3OyfC7777r6rx+/foqZDdBPuRE3pPO1D6mzRob2wNdnj17duUTkW+ZnTQ4Xrx40bldox4Pt7t5ds81DkdYPc3gNyc2XNf89dTl559/7sLI357wtPkA//nz57trfkmTU4nUG1d3+ZRd49uTjLQ38JihLQ/SRrh48WJ3TV4ceaKbtCvp49o2Vl08f/58FfqJyBC4ro8/2rKjq5oPeZAl9SScsOSrZVZSftUV+dK2ts24xLUM6afVcepK3TW+1R3lJS4u+atMuLS7j7E+gFpPK0Mg7u3bt4sbN25015FjLG+VkXSV2u5Wp1XeWmZ0FjfWZhGZF9/hmAgT161btw5ORDghwQ8sHHfv3u0mV+KuXr26uHPnzqEd9ZMnT7q4PkMqk2fKpq5MzlP48ccfu7ohMnAqweTKZJ8wfpGzTro1fspJBukjJ+1E9pzYwOvXr7trZALKfvfuXRf266+/du3CKHr27NlBOeyCowMWHPyJ+/3337vwqdSyqZuTsj4ePXp00J+calDvuXPnDuoFwo5CbTPX1BXDp6XVD+kyVnCMo3ZxrfEvX7486E/SsUgTTrlAf9A/tIW+Tz7C6cs+udb1AQv6lStXDuKhT1fE1f5AjrG8tKPKePv27UNj9Y8//ujCW53S7npvtjqpp5m7fqoo8jXzzRocTGx157MOJst61H7hwoWDSf3Dhw/dxJoF+/Lly/8xGFhMhmDyvHfv3sr36YQnZR0HFiYm25TFLwsYE3eo8VNg8QhM8lMMo9p2dssYKnXixyh49epVd837E9VIGNNbC4sM/ZCyadfQSVkrA8ZhNRBZFDEEjkrkRgbqYowMUduIoVZlvnTp0qFxBzU9/fn+/fvumr5g7AH1oovUi15r31EPcr1582YV8i9jfUAdLOj/+9//ViGfxgF51rEub8ZroD9qHw3plPCajrjoBDY1WkVkHr5Zg6PuenBTYCcWA4VHB+HMmTOd8ZHFlwluk0UcTp8+vbraLu3zc3bxU4yEqbSL4RRa3UR/Af9RaY/hN6Ee9WMEbpO6AK6DXXnk4BRiHTGM0GsWV/oYnVZdtnol/ZBRta4PMGY2kbEylneT9z2qTlMeDqMmxHgj/DhjQ0SOj49UJtIe93Ik3ZKJlEW47gqn8PHjx9XVv2zjZbt2oWOB2dQY2jatwZMTojB2GrBu0TiKAQTtUT8nB33MrTuMWk57Ikc9lZgCiy1jEH1iVOfRFrR6pR8wQPsY6wPAmImMuE30PpZ3E8MsMCbqBoITjgpGB+Gkax9Picjn48QZHDll+BLURfHp06erq0V3LM0C1TeBToEJsh5hs/ixGLDLZAHJAj02WWYhrIYLx9UYScnPLzv3mzdvdv5tg37WLVTXrl3r2lSfzfM4ief1wKJfHy/hr9BOjt5D3SH/8MMP3WKWsmlvfYFwHXXxHTvhoJ15kZL3CLZ9GlKNqtrWdWCo5B0aXH1EhH6rrpCbfqA/Wsb6AP0zXh8+fLgKmc66vDwOYrwG7vU6TsaIcU6f1xOOSjUWGRebjA0ROT47aXAwEWBUMPlkx7btyaF9h2PdzodnxCwESV9hYmeyr+VtIi87MIyU5GXiZXJkd4ohwwJHOAtiNXpaSJv/JQLIzM4v+fllQaq73m2SRY26YuS00K68sEg6HPmyOOZkKHHtgkt8xgSungC0ZdPeqSdNpKtjYuiEA5ApaTHq6nsHxwU91LFQF8l1IFf6Py4LNuXSpoSTDuOsr/x1fcB4bcf71JODsbytjDwequ9mDIF8tc9r36UsHPVOHQ8isn1OLXdC015gkEEyYdbJDOOEU4spE6bINmBRrQYlpxgYFt7iIrIL+A7HFmA33z4Lb1/YE5mTnCjVl4/bd2NERL4knnBsCXaXFY76Pd2QzwmPT+p7GuDtLSK7ggaHiIiIzI6PVERERGR2NDhERERkdjQ4REREZHY0OERERGR2NDhERERkdjQ4GvgLoflc9tcIf5Bs6p+L3lX4mxP8N+Shv2a6i/DH4ab+NU7ZHl/DeBf5WthJg4MJIn+OGLftCSN/Or26oxoZkXXd4kca/vKj7B6Mh+P+6fwv+Y0fYGzt6hibqhvvEZGvm500OPjjRfx5EBx/QAv/tnez7efp8y2PTeGPe5F/k29eyG7B9z1wx4Hxwzj4UvDnzKl/ru/kHIcvrRsR2Q120uCok1P+Wmff59s/NxyJswvD5Yue2VmG7ObicvwP+bBWdnHtSU7d3eGv8dmBD31Arq13HTVtjDnqS7tCPZJOW+ISDlWuelpUw+sjBdLgz2lTyqqnT5ucOiQPrtZfdYjrM1zr4w76AJmrPqvcUGVMXKu7jAtcDQ+tXGN93+Zv80L6pravpjmKTsiT/ot8hNe8laqXOPK1uqllEB7Zod4j5KPMpE8bat8kXxjrNxgaX5EhjrpFZMssF/ed5u3bt1gf3e+2uHr16v7e3t7Kd5ihuNevX3dytNTwMVkJJ21IvqRty+f6/PnzK98nfy0DOe/cudNdP3v27OAaalwLZdZ6SJd6KKfWCfgJhyHdtPWlDMIjb3QTP+XgT9lAGdXfxodWz9TX6jH+WucQ1Bv5kz/+Vm7CaVfgmjSt7sgT2dsyWxnjD1zXsriO3tu81EFc5Ez4NnTSpqOeKhf+6KKNI2/aX3XTtrXS1kc+wtJ2ICx6hDr22naSr8pBulxDjaOcWo+IbJ+df2mUXcpyotj6I4v28/RTqTvRIf7666/V1TBPnz491C6OwpeT8qGdVf0s+HJC7B4D5cicz6JnZ8opUP1SLZ+379u1huUku7paLP73v/91H5obS1/hk+EV8vG5eMoJfF4deEwReWkn7eODYoE21e/N0IbqJ/79+/cr3zDUV/UI9UTszZs3q6vpRJ+UixyR+9GjR4t79+5110Ab27FJH9LWtAWZ6Ouwad/z+f537951121e6uh7HLgNnVBP8sLjx4+7LyCHa9eudX3PGEC+K1eurGLW992U+wjQS23f2FhvdUM+8od146sd2yKyXXba4OB4lImzTjDbgsV7aXAduHUw8S53UAdHvn1Hrkx0LN68c0KaHAEPweJVjR7ybkIWdqhHxRhTU8nkPIW850Ad7TF/XzksBJEJN6V9NT2L2RRYvGq+Cn0b47LviH0qdWGqX2QdotVPy6Z9Xw3C9svEfcylk4xtXF3MkenVq1cr36Lru7Nnz658/zLlPlrH2Fhfp5vkw9XxNTa2RWQ77KzBwWLNZFIX1S8NkyWTNRPm0IusLLykYQFB/rGdHLsx0lZXd2BTyaKRMjCmplLbMOVz+kzM1MGkXBerPl2wIHGaErnqAtUHZVZDkB3oOqiXxYs+Sb6WhLPIH2WBa5nyPtG6cXucvs9pxxBz6qT2Z1yMTcZ8FnPaN9SeKffREOvG+phu1o2vobEtItthJw0ObnaOb7n5W/JS2Jdkyg633fGz2NbHCTdv3uwm+00m2zFqfehuDCb58PDhw27iJT/tYtGIkYSuh3beqY9f2kY5oe4QY8RQ5rpdPGRXjF6mnnBA+mRs8Vxn8EwBXdXHCuy22z784YcfurZGFn7p63Ccvr906dKhvJQ9dJK2bZ3waKc+TqrwOKIaI1NOJdv7qL1Hhhga661umEfaMTdlfNXy6d/6cqmIHJ2dMziYCJg0mCiyW8Jt+6bPkXLcuh1NDB0cEyOTa52YgIm9lsluKs/AmaxzHE0bCacMyqp5MlluApM7OksZ9Vl6H9SbtOTLcTLtQeYcd7NbrLvA5MFxfJ5Fhd18rT8LMvWkLN45WXdiwXsL0RF6YZe8jsgcPVIG19A+VkAvRzlBqqAr2psyeYegHQf4aXvagkx1J36cvkf+2l4MgPYdjrl0Qj2kr/ljXDIW0t64PkNo7D5q75E+xsY67WDMpN08Xqljbmx8pTxcHdsisj1OLXcj619gEBEZAcMDQzPGCwYDizobh9YgE5Fvk53/XyoisvtgWNR3gPKei8aGiARPOETk2PCohsdnFU83RKSiwSEiIiKz4yMVERERmR0NDhEREZkdDQ4RERGZHQ0OERERmR0NDhEREZkdDY4G/qLp0J+Klk9/LtrvTEj+YmngD3+N/Ql1EZGdNDjaPxG+bQMAo6KWf5w6Iuu6P0tNGiZpmRcNxqOj0SAic7KTBgffO+DPg+D41gLfPTnKN0bG4FsTqQPXfo9iKvwpZ/L7B45ERESG2UmDgwU85NsMUz4JPjc8SsiJSD5a1R4t149T4TCUEp8PmeWkoz3JqScg+Gt8Pl5HvQmrtPUOMZRuTJYx0v64occt0UOtJ2njj05DK2vdfbfyUj75+QJoPsyXk47k5bftt7jaXtLU8kNNn7JbCM9jp6G07QlbNabxt7JWKJfyahlVL9FzX1zbLlzgmr8Mmo+bJR919aVfR5UvY1dEvnGWi/tOs7e3t3/+/PmVbztcvXq1K7ePobjXr19jBa18/1LDlxN2d81vC+GkDcmXtG35XNd2469lIOedO3e662fPnh1cQ42rDMm3TpYK5abspItMgL9Pf6kb2aofl3ppb/LyS1xo66rXlb7+I23VJfVVP+mrn+taNxDW6if+SuSODK3cyBcdQNtOrqssLeieNPQ58Is/stSyEhfadrXjhPiUC2PjKu0KNS9pajmkq34R+TbZyROOuvtkt8rnwLdN+3n6qUzZ+f/111+rq2GePn3afR47j2L4ZPly0j60I+Vz2mE52XePgfK5ez73np0xp0D1c9p8Mr3umlta+abI0kfyRSZAxt9//33l+y+Rk7qoY7kQHdTL58n5JD48fvy4iwvUgQ7evHmzClkcul5H1SX11TF14cKFbndfqXUD6at+YOjUDTnziK7KTZ9wAlP7KunquKqy9oHOc/LHL3pMny7v6e4Xfvjhh+63joXarjqG+th0XAXyRD6g/e/fv1/5RORbZScNDiZpJk4cCwEGwdAR9lFhYUwddZIeApmWu7qDxyJ9izELEvLmWHqdzI8ePToweHDtoreOumjWI2yMqT7G5DuqLOfOnVtdfeLs2bPHMhDrgla/PgrIH4OEPovROPQYZ4z6qKD96Fgf7SOYTYihElo/BsOHDx9Wvs2pj17qIxPKXce6vpoyrvpIHhxGlojIThocFSZndnRZaL4kMYQwPFi0+3Z7yEsaFmwm6LETEdoVgyeu7gynkgU3ZWBMDTEk31FlafuFnWzfuwdHoV2E0Xc1cCInxtK605gKaWl78tOfY1AvRgnpkmcT2nHS+umL1rjahBgN9CXjkvKQcarROMQm46pC/1eDnhMOEZGdMziYNNuXzFhQstBkZ/olOX369OpqmHW72Js3b3bt6jNajkKtj8cR66jpjypL8lWjioWco/rjwuMVFs9AHeyUr127tgr5l7qTp11TjNOah0dDU0i/rzNukDNpqtzIxuJbT2QYz8iSxzRTqDqnHgyLahymb58/f979TgVDoX30sem4Cpx0AWOqnnDswv0rIl+GnTM4MvHWI1l2S0f9b6tDsDDWOtYdy9cjeBaI+u5BYPKvZSJ32pMFlHAmYcIpg7JqnqMYIDwzZxFKGVeuXFnFHGZIvqPKknx5zITDf5RTmhb6m1OXlEsdLKzonMU24TjamzpjBBE+ZBiQlsU1+ddBnegq+uEdC66HwKggDWmRu46VFy9edCcSqZtFfNNHUOgFo478jKmc0NAfVWebngpSZu4LdDx1XLXQ9ox19IRMIiKn9jnzFJGtgGHKS7MYFnMQw7i+zCkichLY+Xc4RERE5OSjwSEiIiKz4yMVERERmR1POERERGR2NDhERERkdjQ4REREZHY0OERERGR2NDhERERkdjQ4REREZHY0OBr4jgt/LfIksIuy5s+Of8vwZ9OH/qz6l4Q/VU/fHOXP538rjN1T0R9u3acQROS/7LTBkRt8W18fDfWT23Gfc+FOu7a5KH0Li0mMmXy47GtiW2373GO5hXsL9zWAHtFnePjw4cFXlfnT8l9TW0U+BzttcLCLmOvT1vXz2bhtfxxuDD7kRZ3b+MjZtwQfJ0Nv/H5tbKttn3sst/ANmbm+I/O5QY/oM2DM56vV8DW1VeRzsLMGR3b/2/jU+bbILjSu7kazG6qOsHqawW92RFzX/IQnX45ryd/uoNp8gD9fL80XTXPSkXrj6u6Xsmt83+lI/apqPUbmOuG4MWq69ii6r91Q9ZkTruiyylnz17ikre1rdVnbUE/RyEPaxEdnVSbcVKqMrQyhbVseyyQfrtKOxTZfqHX3fa6+ltHqH3/NX8uFmjdx5GnLqemGSPvj2roCZVNmHZfkrfW0eWtaXIW0CW/7hriMC375zH79mm7b1loWLrR9Ve9f/MmXukS+VnbS4GAC4fPWu/RFTGTC+GHHg+OEJMYQEwgTEZ9PJ45TGY5e606TT3YT17cjyqSVsqkLNxV2xdQNkYFTFCYy9JgwfpGT8FDj8wn1kIk9cqU/CH/16tVBOLoYWkjJX0+TyJf6h9pNPHImnE/7V5lD6ky6fEK+Er3jWDBSDm1gt5q4hAXSJp5+JB+fe096+rguNkOQpo6bKsM66Ju++tARn73ns/TE8ctxfwvt4dP3KYOv2FbG+gb4NH1k5xP7yBPavPfu3VvF/MsmOqPfkq6tq4WxkX7lPiNv6umTk8/qp2zSEwbokbTRI22lf/pAj8ifNrcnUcwBlJV7CTnQP3UMzRsB3RFHHSJfNcuBvnMsb+z95Y3ZXS9v3P3lhNJdbwvKp+nVhVr3GMtJ6iBfKyP5KQeWE1CXjt8KYZTRXldqOaGmrbL21dPXluWE2zlY11biKLOFttLmUOuueqnXobaJuL52D8lV66nXlZTZF0+7h9pb9TJlzNV2tLT6qUxpG7RlcJ36ptY9tZ9CLbevjrG8oeqxZUzuSquLSls+7Wv7akzOWnafPPgJh7bsGgdVllauIVqZuCZM5Ftg50442BVh6c/9HHo5cXDXH7gpsGPJsSg7zHDmzJluZ8NuBthJtqcF6zh9+vTqarucPXt2dfUJdu2Rcx30AXpKm2s+dnMJX07Kq9B+kg7H7rQy1O5W7iFaPSPLhw8fVr7/wk44sNONXOzm11EfL7TtGCN5cEM76CnUHfDU8cXYHKPKNqVNHz9+7H7X9XmYqjPu+6SbWvYYQ3JGb4nf9D4do77fURmaN0S+NXbO4Pjjjz+6xTs3aI4pua7PPj83TIhMmDFQlruSVcy/MLkhJwvDpo+DMgFWpi66Y7x//3519QkW3E0m2bw4h+HB0XRY7v4OdBE3VG6brj5W6ms3tHIP0RpPjJV1iyywELZH7WO0j3/QxxTaRw/LXfIq5nhMNRrHjC+IXHFTX4JEz+uYqrP2ccSUsqfSlhW9xdCdqscpVGM2TJk3RL4Vds7gYKHOzYljYWMh55rnptktfAnqbunp06erq8XizZs3B/9dDrfps1gWofv37698nxZDJkIWTnbEmRSHnn9Du3MDnhUz2SU/v+zkb9682fk3oRo/vFPR98y+hf5CZ/RZH0Ptvnz58qHdMPmZuCu0l/xVJ6Sjvqn/06PuSKeccFSD6vHjx6ur9UR3tO04JxzhwoULXTkxwPntGxsYVLWfqsG4rm/GiH5r3rwX0bKJzpK27+XWo5A2Vt3wrgvjhrpaPdKeo/bPpUuXujGUe43xGv0MzRsi3xo7+79U5oYFLacouLHFHPgvrPUIvsIpAC/c1fJYPKfCrhIjJXlZcJkQmTAxZJiwCGeBrJNXC2k5siUtIDO7yuTnlx3W1AW5HoezA6WNQHtZvBKHG1pwaFer60zEQ+2mfNqScB5R9f0X4jY/C9pUYw/Dtsq17oSD9CwoSV8X7zF4uTGPn9D/unqmQP9hiKev+e07UUtYZEaWyljfrIOTg5q3LRum6izjPOn6TgqOCm2sMmAQ5BSHerk/okfqPWr/tPcahh7jeGzeEPnWOLXckU97gUEGibFSJ30mGXbvfQuliIjIt8Y3e8KxTdg1tS+MsQOc8i6BiIjIt4AnHFuiPS7lyNvTDRERkU9ocIiIiMjs+EhFREREZkeDQ0RERGZHg0NERERmR4NDREREZkeDQ0RERGZHg6OBv6459a8tnkT4g2TtnwmXT/Anruf+a5Df8viKfnHb0AF//4ay8ufEW5Bj6C/gisjnZycNjvontePyvYNt0Ff+USdAJjXyD016gTTbbMPXCH1A38j6xfQkwF/grQs+f3k3H7Ljz37T1/a3yLfDzp5wZGKKm/r9j6m05TMBHgX+uBf560eqROTTn/qv37bhun4EkG+a5LsmIvL14yOVDWDHlhOR7NzaY3h26UmDy04V8pGonHTkdCSunoDgr/HZCVJvwiptvVOpbRrLR9wm8kQvcfXjeNFJHOUSz8fA+FonYbX8Wm+IH1dPp8hX0+eEoMpZZVlHzYerUFfCI29Ln84qQ2MqH+nLx8DSjrafKT/UunB9pyPURxm1XaSr5dYyIeG4yBhqvlavxKXNxPPn/vMhO+okfc3Tyh/Wteuvv/46iGvlq5CvloN8YYruROSYLHfnO8fVq1f566cH7s6dO6uY7UD5e3t7K99hhuJev37dydJSw5cTanfNbwvhpA3Jl7Rt+VwvF5uV75O/loGc0cuzZ88O6ajGtVAm6YF21jrwk7ePTeRJWxIH+KPXIR331U+d5K0Q1uotfvJXPxAWWQhvZQspK1BP1SPX0QE6rProo62LPPjTdn6rHigv/uSt7SCuyhd5U369HoI21HTxp52RMXBdZUSX6aPUHxkjXx1ftT9pX+KAOlNvWxbpyE94LYP08UdHbR21LbWPqmyAP3qo1yIyDzt5wsEx61K2zi0nle7z0nU3sg3az3JPpZ5CDMGOax1Pnz7tPoWdRzE8MlpOjod2l/WT38tJtXsMlEdLt27dOtiF8VinfqmWz7xP2aHxOXeeq4dr1651JwxDeafKk7bVx2Ck5TPzoV6vY7lIrK4+wdF81Rt8/Pix+wXqqo+4GE9JRzh6/vDhQ+cfgn5m7FW9/u9//+vC0s563cfz5887PaVu+gl/4DFefZTH59vHPs1Of1VdUC7lvXnzZhWyOHQ9RO2bS5cudfpIO/P9H9rFWCSuyshn1xkj0I5h0pH+KLRlIQflIWd97IK89TEN1D5iPL969Wrl+5e0Je0D6qPeMEV3InJ0dv6RChMQE8MmC9QUWJRi1ODWwcS33AEdPBaphkFAVhahHBuvM5IwpKrRQ95NqBNvPd7HmJpKZMUddbEIVZ7267k8u098FhDqHDsCH6J9XLMOFs+afqqeW31kMcS4YeFi8ScNZQ4ZoskzRH20wXhYR/sFYsqPkcI4jiHdPt7YlBhwbf+cPn26+42h1fbzcRgqi7ZER4zXMca+0Ey/pxxc1fc2dSci/ZyYdzjWTdyfA4wOJiYMDya+vt0tcpKGyY0JbOxEBEOKtNXVHdhUMkGmDIypqbBo1vpx29B1u1N///79ocUrp1iEbTLBo3OMPvog8q4Do6C2c6ph1Rom6e8suvQV5VE2MvXRN0YCRiKnGpGL8bCO9mSG8utCnbJYTPuM4k1pTxNiiGSMjJ3IbEpfWRjtnFikXfWEp4+xkyv6PeXE1dORhG1LdyJymJ0zOFig6wKEnwng5s2bnZ8JiF3IlyQLzhjtos1kVydD2kO7xhakTaj1cfQ+hdu3b3dH5NsmbavGFsYXj11aqtz1FGQd6YOpC0N2vsg05YQD45I+q2Px4cOH3SOMtm+HdtUXLlzoHj9ED4zdPI4I1VhAZyF11EdF9Ffd4VMu5fEorGWqUTUGBhW6qid1PLKIYcTjjTqG0dUU3fbRlkW/pt5qqNbHeqH2EeMZPbWkLVPGyzZ0JyL/ZecMDiZ6djQ59sxulvBtkuPTuHW77Bg6OCYkdlrtwsNkVsus7zhksSCcSZVwyqCsmucoBgi7NCbrlMGueQo8Iydtrb89Qj8KaVseP+Hw5/Sm1kdf1/cHWBQIH+oPdI5eozcWoHULRJUFo6e+RzEGxk/VK32Tx0HIl/CM0Rb0gKypmx18PcWg3XUcticc+JMX6C/Ckp449IVOMD4SjqNfo+/jQPlVRuqq/YU86QuMp6m6baGs2q8YDrQXRz/U+lvo08QzfsnTB22pjxBx3LNz6U5EDnNqnzNEERERkRk5Me9wiIiIyMlFg0NERERmR4NDREREZkeDQ0RERGZHg0NERERmR4NDREREZkeDQ0RERGZHg0NERERmR4Ojge9b1D/lvMt8SVnz1xk/B/w1yG38BdQ5OEnjZVPW6b1+MFDmgz6Y8ifZp0Bf5U/tzwH3AuNCpI+dNTjaPxO+7k+Pb0KdKOM+56LBn8imzm1NIpAyj/Kn0UXW0Y7ZfMclHzyLATrnYiZfF9s0pORksJMGB4OQbx5kMsPVrzpuA77bUMsf+v7CHPA9COr0ew1yUmjHLB8irN+w4bsxxOfbQSIiLTtpcPDhpr6PYX1psouLq7s5TkhqHI6wujPkN8eNXNf89dQlpzl9x5NtPsCfyT8fv8pJR+qNqyc5lF3j+05H2nZNhd1L8rSnU/XDZ7V9NbzvKL/K0pY5VB/X5Et8q7v0D+HJX+smfy0v6ft0BSkDV3W9qXx1PLRjIESW2ocpO/7aFmj7k7yVGvf+/ftV6CcIQz7KYENQP7TXp5fa5uPoIqSOob4CyuiLo53oMfGRp9XHEG06HGF97aaOtl3Js6lMtZwwNDbIR/rEt33bR5UNV3U+JHcl7Y9rafUWuK4f04ustW9xtf1tXVPaJzvGcleyUywHIR+T218unN1vHOHb4urVq/t7e3sr32GG4qgfmQJp4l8aR4dkpIw7d+5012kPYRXCyAekrfFck486xvIRF1lTT2SAZ8+eHQpLGsKB/G2eCunSDiB9/GlzH6SLjKkz/qo3oDziCE9bgDTxpx1tW2s7huqj/OpvSfoqE9dpJ7+5hqTnF2oftGnDpvIRlrYB8dUfUhblVz8u8lU98ktcoE78qZtyqvzEVb3UtMhT41J36m3LStpNdVFJ+lov16mH9qWtQFz87RgCwqqMrcwBeYba1rYbiDuqTG1dxOFP/1NurqHGtWn7IL7qu+oy8lB35FhHbU90gX6A8qIH6BsTVdbUGfkAf8onf9WVnDx29h0OPju+lK9zy0E6+ZPrU2k/T78OjpT5THa4cOFCZ6FDjpfz6ezLly8f2vHA2CMhPoHOqU7gE+h9n+HeFHS4vEEPyuIXXf7xxx+dH2p8C8fnVe6+dvWB/Dlap2x0g47g8ePHi/v373fXQPmkzafIA/3N59wDZSS+bcdYfUDadUf9fCY/IF/1b0Jfvk3lQyf1cdtyov3PaUMlfZSyl5N4dw23b98+0CO6Jy5QJ2W/efOm61feyfjf//63iv30Wf+j0FdW7p05+2qTMQRTx/eU+3uITWV6+vRpp4PURRxpwrqxgb/Gj8G8wxwRyEddf/311yrk04nDEMQxB0Z+ZGY+CVP1G9L22v+U9/vvv698i0PXcvLYWYPj9OnTq6vF4ubNmweL+7ZgIMegwU2hHg9evHhxFbpYnDlzppMvNxM3RSaMqdT2bpOzZ8+urj5x7ty5yZMl1ONbjLQpUH7y4Nq+Q1995Cgdx2Q4Bu0I6+rblCH51sHkyoISOcJR5KvpWbyPQ+3vtm2M07oAbjpux+gra+6+2mQMwZTxfdz7e1OZ6tjuI2Xhjjs22nkHWTFgWPRfv37dzXPUM/T4ohpDfWw6f7RtZ/6qxipQ1tAjHtltds7gyI388ePH7ndX4IbjhomBws3Yws3HzcANUi37KfS1tzUWjkK7M2ZxmTpZ5vlp2lx3L2OgB3bHyddOSnVHG5iYWKyTh53OGO0ucay+TanyrZv8W+j3yE+bYFP5mEyrQcyudVu0umcRbY23bdFX1px9tekY2nR8I2t7f6+7lzaVCerYbtn22GjnHdqWeQejgzqY63jXoq8/xwzGo8wfbduZv6pxgdFBWYTV9zvkZLCTJxzcRPXYnevcqDll+BLUyZHjv8CRNPLlxopFPpW2vUxS3NzsrNjB5EYfu8H6DLVbt251RlLy88sOixOjqdQJlSP5qWTnmWPXwORbHx/Rphzb1oWv3QlSBn0Pfe0Yqm8qVbfIx6MIYPKtskyd5FpDZVP5MunT1uPuYgNtYuEIyELZ165d6/qZ8f3w4cMujnpr2k1oy4K6aMzVVzA2hvqYMr7X3d+09fnz5901bWrr3USmS5cudWlyz9LWVkfbGhu0iTkisKmirvaRzNDpax595L6k7e0pxph+GRN1Q8T9TNspJ1BelTHUcuXksJMGB1YsNxKGRYyLTU8M1sFATvm4dQsJNyE3SJUp8AyT58i1vOxup0B7mcSSl2ed3FDc0EwK2VkxcVWjp4W0OQIFZGZXkfz8slupz0jHQOdMAJELY2EK7GAjB5NF3YVRZqtH5CG89gltqVAGux/iaAftSjvG6psKOk/dyJfn0uiQ8hLXN/mF2i7akiPgTeXjuXre3qetrS6OCm2irMiITCwwmbwZw+nvjJWjwniuYycG9Zx9tW4MtUwd3+vub/or9dKmupPfVCbGG2lyz3LPVx1tc2y09yLlYlBBfXxMPfRb3yLPGKltJ11Yp1/SJy9GBvdzHR84/DGAEoajPyhfThanlgNs2gsMMkiMlXoDcCMzyeZmkd2EXSITal14ZTf5Un3l/S2yHXb2pdGTBBNhe4TOpJijYxE5uXh/i2wHTzi2BMd8lXoUKLuLJxwnhy/ZV97fIsdHg0NERERmx0cqIiIiMjsaHCIiIjI7GhwiIiIyOxocIiIiMjsaHCIiIjI7GhwiIiIyOxocDfzJ4nwbQHaHOfuFv7Ew9DXMzwVt2+TP4X9O+PsX6IjfbcJf6/zSej8uu9xvIrvGzhkc/E19Jrc+ty2YINqyj7qYMWGSf91kTJr6USLZDVj0/CNOMheMr3XfaRL5Vtg5g4MP+PC3yKrjA0XH+UhRH/UTz7h8AGpTWKjI71+pPJnwkTGNDZkLxpcfGRP5xM4/UuHkgC8ObvJJ9blgp5ITEXYukBOZwElJ0uByHA35CmJOOnI6EldPQPDX+BzbUm/CKm29Y9R09Ui7PfmppzZJm7gxeWgH4X3pAT0ib/Km3W0bqmyh1lf1xXXNO6RL8kP6Ja6vrlD1knKiG65rXbShtrWVa6weqGOsTVvLoR5o6wPKyK468sZF7rS/xrfltPz111+Dadu+q2On1UGNgxpXiYxxtc42bkivVa70PbTyhj69RJfx13JC7bf0DSBz9bf9UePGxrDIV8Fyd77T3LlzZ//q1asr33agvL29vZXvMENxr1+/5k/Ar3z/UsPfvn3bXfPbQjhpQ/IlbVs+1+fPn1/5PvlrGciJbuDZs2cH11DjWiizti91kAcXSHNUedKWWh7+1Eu6mhfa+lJGLR9/9FXTE1ZlI66Vtfqh1oX+qr/SltXKwXXbjrSbNDU+/uStpD3IAq1MyJB80Q3+vjLxkwZX+wC9t7LVePypv7IubSsr/ugseaMDfjNOSFPzUX7ikq/KQ/rEkxadjdHKRXrCcCkH+upNW+PHcQ3IkbrbfkvfpL1VzsiTcto2Um6uRb5G+mfZHSE3ZG7ebcEkQLnVhaGJrJ1IQsKhnUAqbV4muDrpQZ1w2vStXKTLpNhCur64KmslcmciDFWGTeTpq6fKtK7todbR1getTKGtfyhdGGo/tHK1aduyazvrdehrB/SlHZIJar21TGRF5j5qXF+b6ZM+2dal7WtT5OtrV2h1y3XS9uWr8hM3VG4gvq89LbWuvra2cpI+47dPzlrv0HWo9wL15Frka2SnH6k8f/68+zok73Vsm+WNz4p04NaBDMsJ9OCxSN8RLu9xLCeqxY0bN/5zXNoHj4rqESp5N4Hnw4Gj25Rz9+7dVeh/QZ9DtO+hkPbDhw8r33qqPC1nz55dXQ3Tfu4bed69e7fy/ZfalnpETh+tox5tj+kEjvMZ8pcvXx7Ug8O/CR8/fux+2+P2yq1btxaPHz/urp88ebK4fft2dw31qJ9xuY4xfbfUtIy5Ifk2eb+pjqE2H/2Qe+TFixfdL3X1PeIIQ+Nu6v0yRPtYqDLW3lYePnufsmj7q1evOpnaR1YiXwM7bXAwEdy/f3/l+/LkhVYMDybvvkmHyYY0TIzIP/YcdrmbOWT04I7yAmOeMacMjKkhxoyatj2kPc5iW3n//v3qapjWuEEeJuQh0haMB3Sd9tM/Y9An9B/5ST+mExgzutYZK8td7YFccZu+oIweMKJoV8qoMGZoA+3CoLl27VoXjhHGApY8y116Fz4HrQGPy0ah7z6ZQpuPfqj6xuigHgyO3AMtfeNuk/vlKIy1t5UHo60aKBgdyMTvug2LyEljZw0ObjYml3YBzk72S3L69OnV1TDtLoe21IWLl2A54TjqZNxS68tutyULQJ3ImKzJy8JYJ+3o/zinS7U8DAJ24kOwK6878HbxBMqIvlr56kL09OnT1dU40RknaUNcuXJlce/evZXvk7+C/lIfsiFjQHbaMGZ0bkLGXd/pGv2HfvmtY6Hu/jn9mAPqre2uXLhw4ZAO+B0yDirRXW0r/VBPb0J7r4XLly8fkosxk/Km3C9TqXL2jdsQPWUM8zv0QvzYqY3ISWVnDQ5uzL7JZVtQfo5UcesmwRg6OBY3dovtRMekU8tk55QFMQsq4Uw0hFMGZdU8mYw2gf92Vx/PtItihZ1wbXsWIXaL7KoSziRcj7ePAqcTKY/TnLHTG3b9pEl6dvTIWnVc9UUb2L0D5TJBJ+860H2ta+wxQv5LY9K2J25V9xkXAdnrY7i4TQ0QymEspe30GdcVFjP0VY06dFr7tB2v2wL9I1/qiYOM8+iA3yn/TTS6yz2D4x7K6VDCcIyDvjLbMfX77793sm5yv0yBOugTyqJ9fXMDRE/pR35pIzrivo88ONj0JExk1zm1z/mdyBZhQWXi/RqHFgsDC0VrDH1povNdk0tEJOz83+EQkfW8efPmP49TRER2CQ0Oka8AHoHxzoKIyK7iIxURERGZHU84REREZHY0OERERGR2NDhERERkdjQ4REREZHY0OERERGR2NDi+EfhLqV/DB6H4i6J9f9pbppG/aHmUv2grJ4eTdJ94T387aHCcQPirkvXPIOdPZSc8/m+Nr7X9cxqLTPZTvm0i/yWfO/hWmeN+S5nydaLBccJgZ8qfsK5fDs33PfgmA35+v0W+9fYfBb61MuXbJvJf+NbJt/xnjLzfZFM0OGag/RDTNo8LP3782P3WL9by4TWYclzObnZIroTj2L1B3+6aMoZ2xfUjaikDanjNSxr81JF4djnIFn8tJyQOl/b2tb+W28ZVXSDfFIbaUesZKys7uLh2d1jj0AF18KE6vkBKWPqizdv2U9UfbmhMkCf6bXU11L5aT9t/GVNDuiWetDW+r3/7+nJs95uy2vKq3GP9MqQv8rfyUQ7pcbXMoTYPhdMe/JRPHOlgSJaW6CiOfFMYK7/KGkf6PllTf81PmuSL3kibtkFfPqAeNlOQMkLqjattpY9qm9pyZYdYWqiyZapanz17dsi/Dc6fP9+V+fbt21XIJ/D3hcPe3l4XhzzQykWZyff69euDcvrKxE+alqtXr+7fuXNn5ftUJhCe9Ckv/lau+MkDVRZI2wP1pZ5WVspIOZCyIeVuAvlreQEZajj+qoeAXJEVKK/6uSYsJK6vXmSvfVDTEN7KE3+fjmqdgTTpE/LnGmoceasfCKtl1naRjvTxt/1baWUb0utYeKuHvnRj+qL+2kd13NCWxNXwCvlrG6oukqfKNCZLS60veg3UU/skjJXfV8aYrH1jqcZHN4SN5auy9ukRGWpY0vAL1FvLk93lcM/K1mlvrm3BDUy5teyxurhp24lrTC7i6g2diadOspWxulvqBNPK1TfhkD6y1LxQ6x26rhBGWakn5U6hnfhCW07KXkdNN5ZnqO9qnX1pQu2zVi+1bwNja6gsqHnG6g11wekbP7V/K23ats2BstsyoU0/puNKn75SzlBbUnaffJWaf4o8ffrqo+1X8pB3HbX8ti/XyVrrbOuv1HKgTVtl7aunry11DNZr2W18pDID9XhvebOsQrcLz92X/bdY3mhdHUc9RswjmhxXx1Vu3brVfRwMnjx5srh9+3Z33Uff10pzhBq3nGhWMdP58OHD6uow676O2sajK8riufNycuuOcJGpHtEOwTN79J12VJ2nHFyOhfuoR8Ntum2OlXo0fuPGjVXoehgHjx49+s97HSkLx+OdddSjdcpbR1//Xr9+vRsryET/oJ++9wWQ9cqVKwf1Vab2y5C+GD/LBa37Gi/Qlps3b3bXlbHxtKkupvbdUeeZofLPnj17qG9fvXq1OHfu3Mo3jbm+VnzmzJnV1Seo5927dyufnBQ0OLYMkyM3MRMlBsFRFtdNYBGEGA5HgYWTiZIJE5lxlTrxMyFdu3ZtFfNf+gwfJsPlDuWg7G0urOsMrTaedmTyyktvtJs+W1cW5EVBDA8WuVB1F9fCAsH7GIknT2WTsTKmQ4waFovUg+6ngnFJ2+rCwYJJWMpjAR6DZ+roJumXu9tVzOaQ9+nTp4s//vhj1NCNAU566g9T+mWdvmJwM/6HjB7oG0+b6mJq3x11nplSfowR+j3zy1T67qFNjZY+WoOUerZRrnxeNDhmIhP28+fPu9/ATVxfoNoUJgxcyE6qvkR6VFJG3Z0FFhkmXn77djGEMRk/fPhwFfKprSGLPBPlJgtrH3VXRn19MuEnvOoavfUtGK3umGz7dFBhNxhYRPI/hdZRDQUW0hCZat9Gf9TF/yapEJf8TL4YMpWqe06lppC6+xaZtJe6ppxw1MVgyq5+iEuXLnULJGWMGbqh1rtJv4zpKwY343/M6AnteNpUF5v03dA8M8ZQ+Rh11bDMy+hTGLv/GTu13WPzX3RXDRd0Xu/5KRsf2VGWA0u2zHKi655D4nK9nLC6uOVNeeh55lGgjJRfy+a3+ivLieQ/z9pJu9yNddfEpzzSUUfiYLkT6uL4HSNl1LTJi6Ncyk9cKxd1kq5CnqTPdcqrafvaX3XFdajtxaX8lFHbHpCz5qn1tHG1TZWaLmMjpO64KkPCMnbatMhf66ztJk/annyRnTzoAmoeXPKkT+IoL3na/oNWNtJHbuSs/QD4o/8+KGNIn9DKXan6xg2VU8uo+gqEERe9QW3LuvEUV3XRN9ZhnSwhMiUdv5GPPEM6HSs/4TUe+mRN26pOat5af+0HwvkdkjVpq1y1rTUvkD7jUXabU/yz7ECRUdhV8NhleaP/5zTha4Jd/u+//77R7k7mhZ0yu9xNj/dlM3j8c/ny5UN65rRvaWwMPkYS2QQfqcgkeGluuZP4qo0N4NGEfwhrd+BoHSPX4/P54bFdfVSYxxrbeFwrAhocMglemmP387XDgd/XblSdJHg34fz58/bJZ4B3ZXhXIi+NondON9S9bAsfqYiIiMjseMIhIiIis6PBISIiIrOjwSEiIiKzo8EhIiIis6PBISIiIrOjwSEiIiKzo8EhIiIis6PBISIiIrOjwSEiIiKzo8EhIiIis6PBISIiIrOjwSEiIiKzo8EhIiIis6PBISIiIrOjwSEiIiKzo8EhIiIis6PBISIiIrOjwSEiIiKzo8EhIiIis6PBISIiIrOjwSEiIiKzo8EhIiIis6PBISIiIrOjwSEiIiKzo8EhIiIis6PBcQL5888/F6dOnTpw+EPrryT9P//8swr5RF+epI37+eefVzEiIiKbo8FxwsBYuHjx4uL169eL/f39zt2/f38Vu57z58+PGg+Uj4Gxt7d3UD7u1atXi59++mmVSkREZDM0OE4YHz9+7H5Pnz7d/cKLFy9WV+vBOHn58uXgKcjDhw8Xd+7cWfzyyy+rkE9gcIzlExERGUOD44Tx448/dqcUuPbRyBTOnDnTGRS3bt1ahRwGw+LSpUsr37989913XZ1v3rxZhYiIiExHg+ME8vfff3dGAwYAjz82NTx+/fXXxdu3bxe//fbbKuRfCMco6eP7779fXYmIiGyGBscJBaOBdyt41+Iopx3Pnj1b3LhxY+U7zIcPH1ZXh8HQOXv27MonIiIyHQ2OE07etci7HVO5fv16Z6g8ePBgFfKJq1evLv7444+V718waDj9+OGHH1YhIiIi09HgOGFgIFQjIY9F6kukU3ny5Mni7t27K98n7t27t3j06NF/HrdgnPAYh3c5RERENuXUPufycqLgXQpOGwLXMQR4p4P/MsvLpS19cfwXWQyMWganGRgYFR7dtP9zRUREZCoaHCIiIjI7PlIRERGR2dHgEBERkdnR4BAREZHZ0eAQERGR2dHgEBERkdnR4BAREZHZ0eAQERGR2dHgEBERkdnR4BAREZHZ0eAQERGR2dHgEBERkdnR4BAREZHZ0eAQERGR2dHgEBERkdnR4BAREZHZ0eAQERGR2dHgEBERkdnR4BAREZHZ0eAQERGR2dHgkJ3gt99+W5w6dWrl24zvv/++y7+r/Pzzz50bYlvyP3jwYPHTTz+tfF83x9EZ+ch/UqBP6dtd5KTpUr4sGhwnDG5uFmbc2CK2bahrronlzz//XNy4cWOxv7+/CtltkPeoxpHINvnnn3+6sbjLBvfXwLpNwxww337uOudGg+MEwU7nypUr3cKcxZkJ53Pw66+/Lv7++++Vb7v8+OOPJ8bYENklvvvuu+7euX79+ipEvhaYb5l3vyY0OE4QDMBz586tfJ+MACacUE8/xo7W2Q0lHS5GC/nbnRLx7Ojb43quk7+GY5EnvJ6IUC7pEp8jYn6THjdEdnJxU3d0OY2IqwZaDa+ykgd/lS07Deq9ePFid524UPXftzOpOhuTv+oQN0SrkxbqqPG0a4gqe/KFNm87FqbWQ7vIW+tq09Y43Dr60lJmmxd5M+ZCX/+G2le4McO+pq3l1PBWX/hrPxMWuXGtPDCkt9Zfy23jAvVRXqXt10ptS5tvCORImclLvSH+tsyxMVB1hBu6n6v+2jxVH2N1BeR/9OhR50hTy655a3janvKpEz/hVR+ERwc40gTSxU8a/OTvSwsJb+P6ZIHa9ir7rCytYzkh7O3tcQzQ/bZcvXp1/86dOyvfJ39futevX3dxgTzx12t49uzZ/vnz57trykpcDa+QptZJmvjJ08pOWCtz9VfqUE1ZgXoIa3n79m2XjjYDvym/lYW60z7SEZ+0feXU+oG8iW/TU071R37SQZUfmapu8Ueulqrf1Nm2IXX0yRyQr9ZBuTUt15Edqkyb1lPLatvKdXQOXNf4Sisj8iRvnwzER1fRf6u79AFpqz5I15YXWt1xTXmE1zFZy2/rjz9tjTzRE2Xij45beWraVmcpO3krNR+Qr8oc2jbixwHph/qINNSRMltZuG7z4k/ZwHXStHrhN2lJE30C/tRbrytjdbUQV9PCWJ2kbfWbfkua+KNb0uKPfghP+dFd/G1a6s51G9cnC2XH3+p1TvrvItlZMphwGXwZMBlgwAAdunkqNV07UOuA5zc3RgZ/ra+PepNOkafWMUbb3nqjV4bK65MlbW+vA+Wkjr74lipT1UOo8UPX0LY19MlQ27uuzgrlUF5oy27jj1pPmzZtg772DLUd2jq4jkx9ZRGH3EBa8lci21CdhFUdhKHwlrH6++okfdpX84Za79B1mNIf5CFvH22ZNW2fLkMtP1RZxsoNVTd13FX68tW01NnKsa6ulrYt6+rsa3srf18ZyEo41H7v03NN20K5ieuTpaX2y5z4SOWEkfcdljfF4u7du4eOzpaD5uCIjJcwh6jHcjUdZVPGX3/91R1Vvnz5cnHt2rVV7L/wvHg5OA/qGzqi5AhyHfV4kfYMUY8dqXcq9ZFTBTkrp0+f7n7Hjs7fv3+/uvov7eMN+meMtv4KfTKlrev0kCPgKTKl/Udhk3r6iM7b9qTvPn782P2u4zjvGNVHldCOG2T78OHDyneYId1VnXAvbcrYeBvr+1YexlpfWTdv3jy4R58+fbpYLkrddR88Rkxb8kjxKIyNe1g3BobuZ6j6rnMJ4+LVq1ddOPNNOO54g6E6j8PQOOsjaZmDqyzr2HS+2hYaHCcUbg4miHfv3q1CFt2gwRiJ65uAMVC4+ZIGw6Fy+/btxZMnTzqjY2lhD97gGB3JnwmIm7m+1Do2gUGeGyb90prv/C3cTCzCad8mN8eQAdHqZsqENgaTF7pIW8YWBBhbHGs5cX1yrdMD+m/LGXq5cGySXdeWTeoZo21P+m5TY+goxlO9j6AdN8h25syZle8wfbpjYWU8Rx/cS9tkrO9beRhrZ8+eXfn+JRsMjHnmBAyQIZa75UP9izsKY+Me1o2BofsZWvlevHixivlUL2H8ZpO2jfE2VufnArmZg2sfrWPT+WpbaHCcEBhU7e6A3Qk7MxYjJrSHDx+uYsap5WBcVDjRYDd27969xa1bt1ahw7STcN0pTjnhqAvp48ePV1f9JO3z58+733VcuHCha0tOYPjFyGExZLKpp0P3799fayCFockvuqCedjJDF5GDCZ74vkUZgw/dr4PFAtIGyq47rOxexybowNih/aHdwTJe2AED5R21njGy+NWX1xjPY0bvEEmPnvPbnjDU/kd22kBbci9VOUiHbNF5pdUdRnd0kUUe/1FOOCroPOWOycMYrvft2FgDNggZb33lAWXWNm7C1HEP68bA0P2cfPV+HiJz37q6WpjX6hjfpM7PRealjPt1DM1XtGnKKcmRWFo3ckLgeR5dFpfne2F5AxyKX04Uq5jD1HSkwV9Z3nRdXIW6CAfyJD8uzwqXg/ZQOOkiw9Ka/k890KZPHS21zlxTH1Au5fdBePLhQp+sgfbUtIBcVd/RUdpU6yGM+MhE2eQlPGmiM2jlr21NeX1EzqShjKq/tu246Kylpkm+0OrqqPXQrqrnlFvT1jJqHS2tzriueqoyUU76IHEJS5qxe2lI/6GmTTm1b3Bt/bXMPj0gX9JzXdvTpsVfxxPpa9oxImfb/pa2TPzQtqWS/q76qXK2/pC0uNQTWj1UajiONkW3cW15Y3GVWk7VVc1f49L2CnG1jui+gq5oI5A25fXpuaYlXWQgH3HRbZ8sVY+kJU9b1hyc4p9l4SIiHex4OOVwavj6Yde+XHC64/ihE46jktODr+1vScjR8ZGKiMg3Cu9qYXBs29gQ6UODQ0TkG4V3uHiPQ+Rz4CMVERERmR1POERERGR2NDhERERkdjQ4REREZHY0OERERGR2NDhERERkdjQ4REREZHY0OERERGR2NDhERERkdjQ4REREZHY0OERERGR2NDhERERkdjQ4REREZHY0OERERGR2NDhERERkdjQ4REREZHY0OERERGR2NDhERERkdjQ4REREZHY0OERERGR2NDhERERkZhaL/wfjuhLawCVSlgAAAABJRU5ErkJggg==;" vertex="1" parent="1">
          <mxGeometry x="120" y="-620" width="540" height="467" as="geometry" />
        </mxCell>
      </root>
    </mxGraphModel>
  </diagram>
</mxfile>
